{"glyphs":{":":{"x_min":0,"x_max":212,"ha":212,"o":"m 132 328 q 110 328 97 360 q 84 393 84 421 q 84 432 94 442 q 105 452 116 452 q 136 452 150 414 q 165 376 165 343 q 165 328 132 328 z m 139 -25 q 120 -25 104 -4 q 89 18 80 44 q 70 71 70 79 q 70 90 80 100 q 91 110 102 110 q 111 110 128 86 q 144 62 158 32 q 172 3 172 -10 q 172 -25 139 -25 z"},"$":{"x_min":0,"x_max":550,"ha":550,"o":"m 289 18 l 294 -64 q 294 -82 287 -92 q 280 -103 270 -103 q 263 -103 256 -69 q 250 -35 250 11 q 230 7 206 7 q 159 7 132 18 q 105 28 105 47 q 105 56 126 82 q 148 107 156 107 q 168 107 168 102 q 168 99 158 94 q 147 88 147 84 q 147 81 156 75 q 164 69 180 64 q 197 59 221 59 q 230 59 248 61 l 248 91 q 248 193 249 256 q 148 288 90 316 q 33 345 33 379 q 33 425 100 484 q 167 542 255 595 l 256 682 q 257 729 264 764 q 272 800 294 800 q 308 800 308 787 q 308 782 307 776 q 306 770 305 765 q 299 739 299 720 l 297 666 l 295 618 q 319 631 360 646 q 400 661 420 661 q 436 661 450 654 q 464 646 464 635 q 465 628 466 618 q 468 607 469 599 q 469 593 466 588 q 462 584 458 584 q 454 584 451 592 q 448 599 440 604 q 433 609 411 609 q 394 609 362 598 q 330 586 293 566 q 286 393 284 293 q 394 258 452 232 q 511 205 511 175 q 511 152 479 121 q 447 90 395 62 q 343 33 289 18 z m 87 385 q 87 367 129 348 q 171 329 250 304 q 252 477 254 544 q 184 503 136 460 q 87 416 87 385 z m 283 246 q 282 221 284 169 q 286 125 286 103 l 287 66 q 329 76 368 94 q 408 112 432 132 q 457 153 457 168 q 457 185 414 202 q 372 219 283 246 z"},"?":{"x_min":0,"x_max":499,"ha":499,"o":"m 382 401 l 353 375 q 349 371 322 348 q 296 325 280 302 q 263 279 263 252 q 263 229 274 200 q 276 196 280 188 q 283 180 283 175 q 283 163 275 156 q 267 149 257 149 q 239 149 228 175 q 208 224 208 252 q 208 278 224 306 q 236 327 257 347 q 278 367 310 394 l 346 425 q 375 453 391 476 q 407 500 407 526 q 407 573 349 573 q 311 573 260 556 q 208 538 162 512 q 117 486 97 465 q 87 456 78 449 q 68 442 62 442 q 50 442 36 452 q 23 462 23 476 q 23 481 29 486 q 35 491 42 496 q 50 500 57 505 q 123 549 205 587 q 287 625 356 625 q 407 625 438 602 q 468 578 468 536 q 468 501 445 468 q 422 436 382 401 z m 273 -10 q 233 -10 233 29 q 233 48 254 68 q 276 89 298 89 q 337 89 337 61 q 337 50 327 32 q 317 15 302 2 q 287 -10 273 -10 z"},"<":{"x_min":0,"x_max":484,"ha":484,"o":"m 427 371 q 404 371 361 349 q 318 327 281 303 q 244 279 233 271 l 93 180 q 102 177 125 170 q 148 163 166 157 q 175 155 201 143 q 326 91 392 79 q 433 72 433 52 q 433 42 425 36 q 417 30 393 30 q 366 30 324 44 q 282 58 221 83 q 149 112 128 117 q 84 130 59 146 q 34 163 34 175 q 34 198 105 239 q 196 306 294 366 q 392 426 436 426 q 454 426 462 422 q 469 417 469 407 q 469 388 457 380 q 445 371 427 371 z"},"'":{"x_min":0,"x_max":212,"ha":212,"o":"m 120 502 q 113 498 107 498 q 97 498 90 508 q 86 515 86 570 l 84 631 q 83 648 77 681 q 71 717 71 729 q 71 743 77 747 q 80 749 90 749 q 100 749 111 744 q 122 740 126 733 q 131 722 135 686 q 139 651 139 612 q 139 570 134 538 q 129 507 120 502 z"},"=":{"x_min":0,"x_max":494,"ha":494,"o":"m 395 331 q 331 324 230 320 q 130 317 67 317 q 54 317 44 322 q 34 327 34 339 q 34 352 43 356 q 52 360 73 360 q 161 360 239 363 q 317 366 403 378 q 411 379 416 391 q 422 403 428 403 q 439 403 450 390 q 462 378 462 365 q 462 348 448 342 q 434 335 395 331 z m 413 165 q 240 145 112 145 q 97 145 83 150 q 69 156 69 167 q 69 180 78 184 q 87 188 108 188 q 253 188 367 202 q 411 206 419 206 q 478 206 478 193 q 478 178 464 174 q 450 169 413 165 z"},"a":{"x_min":0,"x_max":529,"ha":529,"o":"m 480 37 q 480 25 470 10 q 460 -6 450 -6 q 433 -6 424 15 q 415 36 415 64 q 415 88 418 208 l 419 246 q 419 269 407 279 q 362 203 323 147 q 284 91 224 42 q 164 -8 98 -8 q 66 -8 48 12 q 31 32 31 64 q 31 104 67 174 q 103 243 159 314 q 215 386 271 432 q 308 462 330 472 q 352 483 369 483 q 385 483 402 473 q 419 463 431 445 q 443 427 443 404 q 443 373 426 345 l 443 350 q 454 350 456 323 q 457 307 458 258 q 460 209 461 177 q 462 144 463 113 q 464 82 465 64 q 466 57 473 50 q 480 42 480 37 z m 393 318 q 405 348 405 383 q 405 404 392 420 q 380 435 359 435 q 334 435 295 401 q 250 363 200 300 q 150 236 117 174 q 84 112 84 76 q 84 46 112 46 q 166 46 216 86 q 266 126 306 182 q 345 237 393 318 z"},"L":{"x_min":0,"x_max":575,"ha":575,"o":"m 501 44 l 329 31 l 210 21 l 148 16 q 140 16 134 26 q 127 36 127 45 q 127 52 132 56 q 136 59 142 60 q 147 62 149 63 q 150 117 150 315 q 150 461 138 542 q 127 622 127 628 q 127 642 138 650 q 148 658 159 658 q 166 658 170 652 q 174 647 176 635 q 186 601 192 510 q 197 419 197 320 q 197 236 196 164 q 195 92 195 67 q 208 68 245 70 q 282 73 321 76 q 379 83 452 97 q 511 108 523 108 q 534 108 537 98 q 540 88 540 74 q 540 61 528 53 q 517 45 501 44 z"},"3":{"x_min":0,"x_max":695,"ha":695,"o":"m 226 -121 q 208 -121 200 -112 q 193 -103 193 -91 q 193 -71 235 -65 q 372 -45 464 14 q 555 74 555 175 q 555 289 420 289 q 377 289 338 282 q 300 276 245 263 q 190 232 172 224 q 154 216 139 216 q 130 216 123 226 q 116 235 116 247 q 116 265 133 273 q 164 287 185 294 q 218 305 251 322 q 337 367 389 415 q 441 463 441 515 q 441 559 412 576 q 382 592 329 592 q 248 592 174 546 q 153 533 138 518 q 123 502 118 492 q 109 479 94 479 q 63 479 63 506 q 63 524 103 558 q 143 593 208 619 q 272 645 345 645 q 416 645 456 614 q 495 584 495 525 q 495 476 444 418 q 392 361 328 322 l 332 321 q 364 329 383 332 q 402 335 437 335 q 511 335 560 294 q 608 253 608 180 q 608 67 518 -6 q 427 -78 267 -116 q 242 -121 226 -121 z"},";":{"x_min":0,"x_max":212,"ha":212,"o":"m 132 328 q 110 328 97 360 q 84 391 84 421 q 84 432 94 442 q 105 452 116 452 q 129 452 140 434 q 152 416 158 392 q 165 369 165 354 q 165 338 156 333 q 146 328 132 328 z m 67 -125 q 57 -125 50 -120 q 44 -114 44 -105 q 44 -99 56 -76 q 67 -54 70 -49 l 98 5 l 116 51 q 127 81 134 96 q 141 110 148 110 q 159 110 172 98 q 184 85 184 74 q 184 59 160 9 q 137 -41 109 -83 q 81 -125 67 -125 z"},"J":{"x_min":0,"x_max":582,"ha":582,"o":"m 565 572 q 511 560 442 559 l 446 528 q 461 418 472 319 q 482 220 482 129 q 482 21 441 -24 q 400 -68 309 -68 q 251 -68 175 -41 q 99 -14 44 26 q -10 66 -10 100 q -10 115 5 129 q 20 143 39 153 q 58 163 66 163 q 79 163 83 156 q 88 148 88 144 q 88 139 81 135 q 65 127 59 122 q 53 117 53 107 q 53 83 94 53 q 134 23 193 2 q 252 -20 303 -20 q 347 -20 374 -10 q 401 0 416 32 q 431 65 431 130 q 431 239 397 487 q 394 510 392 528 q 389 547 388 560 q 320 560 279 561 q 203 563 151 570 q 136 572 126 582 q 117 591 117 605 q 117 611 123 617 q 129 623 137 623 q 157 623 183 620 q 255 613 339 613 l 379 613 q 375 639 376 650 q 377 659 388 667 q 398 675 409 675 q 421 675 428 657 q 431 649 438 613 q 485 613 512 616 q 540 620 544 621 q 572 625 581 625 q 591 625 598 622 q 604 619 604 613 q 604 599 592 587 q 580 575 565 572 z"},"V":{"x_min":0,"x_max":548,"ha":548,"o":"m 494 555 q 481 528 468 483 q 454 438 429 348 l 401 245 q 350 60 338 -16 q 335 -33 322 -44 q 309 -56 283 -56 q 277 -56 240 28 q 204 113 145 254 q 109 338 72 410 q 35 483 22 494 q 5 507 5 522 q 5 529 18 541 q 32 553 46 553 q 55 553 59 550 q 63 546 70 536 q 83 517 113 454 q 143 390 174 315 l 256 116 q 295 24 301 8 q 303 27 320 98 q 336 169 359 258 q 393 387 414 462 q 436 536 455 580 q 472 619 484 633 q 496 647 511 647 q 516 647 527 632 q 538 616 538 611 q 538 608 522 594 q 506 580 494 555 z"},"\"":{"x_min":0,"x_max":339,"ha":339,"o":"m 120 502 q 113 498 107 498 q 97 498 90 508 q 86 515 86 570 l 84 631 q 83 648 77 681 q 71 717 71 729 q 71 743 77 747 q 80 749 90 749 q 100 749 111 744 q 122 740 126 733 q 131 722 135 686 q 139 651 139 612 q 139 570 134 538 q 129 507 120 502 z m 248 502 q 241 498 235 498 q 225 498 218 508 q 214 515 214 570 l 212 631 q 211 648 205 681 q 199 717 199 729 q 199 743 205 747 q 208 749 217 749 q 228 749 239 744 q 250 740 254 733 q 259 723 262 688 q 266 652 266 612 q 266 569 262 538 q 257 507 248 502 z"},"7":{"x_min":0,"x_max":587,"ha":587,"o":"m 497 257 q 490 252 464 246 q 439 241 411 237 l 384 232 q 358 118 352 -46 q 351 -70 340 -88 q 329 -106 315 -106 q 307 -106 300 -94 q 294 -82 288 -68 q 282 -54 280 -48 q 264 -10 264 3 q 264 17 275 17 q 280 17 290 11 q 299 5 303 2 q 316 139 334 228 q 250 214 224 214 q 212 214 204 221 q 197 228 197 239 q 197 246 206 250 q 215 254 237 257 q 323 269 344 272 q 361 343 392 425 q 423 507 450 559 q 441 558 377 550 q 313 542 254 530 l 166 512 q 157 510 132 505 q 108 500 83 500 q 65 500 52 508 q 39 515 39 527 q 39 552 58 552 q 99 552 142 558 q 184 565 262 581 q 326 594 381 600 q 436 606 468 606 q 492 606 504 601 q 516 596 516 580 q 516 571 513 567 q 510 563 502 557 q 473 502 443 427 q 413 352 394 278 q 436 283 486 296 q 503 301 507 301 q 510 301 513 298 q 516 295 516 292 q 516 284 510 274 q 505 263 497 257 z"},"S":{"x_min":0,"x_max":550,"ha":550,"o":"m 246 -33 q 181 -33 143 -22 q 105 -12 105 7 q 105 17 120 40 q 134 64 142 64 q 154 64 154 59 q 154 56 150 52 q 147 48 147 44 q 147 41 160 35 q 172 29 198 24 q 224 19 261 19 q 320 19 364 42 q 409 65 433 100 q 457 135 457 168 q 457 211 416 242 q 374 273 282 301 q 193 330 144 350 q 96 369 66 398 q 36 426 36 467 q 36 522 98 576 q 160 629 251 662 q 342 696 420 696 q 460 696 463 680 q 466 664 466 644 q 466 629 455 629 q 450 629 444 632 q 437 636 432 638 q 426 640 418 642 q 410 644 395 644 q 343 644 270 617 q 197 590 144 550 q 90 510 90 473 q 90 443 114 421 q 139 399 180 384 q 221 368 296 345 q 406 313 458 273 q 511 233 511 175 q 511 125 478 76 q 444 28 384 -2 q 323 -33 246 -33 z"},"}":{"x_min":0,"x_max":407,"ha":407,"o":"m 208 407 q 217 394 259 383 q 291 373 306 364 q 322 355 322 340 q 322 329 304 312 q 287 296 257 274 q 240 261 227 250 q 214 239 214 234 q 214 224 222 210 q 231 195 247 171 q 270 136 283 112 q 296 88 296 67 q 296 22 258 -28 q 220 -77 159 -133 q 151 -141 134 -149 q 118 -157 109 -157 q 98 -157 92 -152 q 86 -146 86 -136 q 86 -128 94 -122 q 103 -115 114 -108 q 126 -102 132 -98 q 176 -63 214 -18 q 251 28 251 64 q 251 81 241 99 q 231 117 207 150 q 184 182 172 202 q 160 223 160 243 q 160 257 210 291 q 233 308 244 318 q 255 327 255 334 q 255 344 235 351 q 215 358 186 366 q 159 373 150 382 q 140 391 140 403 q 140 408 150 417 q 160 426 173 436 q 197 454 210 466 q 239 493 256 522 q 272 550 272 598 q 272 646 234 666 q 195 686 128 697 q 121 698 114 702 q 108 707 108 716 q 108 725 116 730 q 125 735 136 735 q 158 735 180 730 q 244 718 287 690 q 330 661 330 599 q 330 537 296 492 q 261 447 208 407 z"},"Z":{"x_min":0,"x_max":598,"ha":598,"o":"m 448 424 q 434 411 408 404 q 381 398 320 387 q 297 349 240 228 q 183 106 183 91 q 183 74 240 64 q 296 55 347 55 q 382 55 426 58 q 471 62 482 65 q 515 74 534 89 q 552 104 556 104 q 561 104 563 98 q 565 91 565 72 q 565 6 354 6 q 275 6 203 25 q 131 44 131 76 q 131 99 176 196 q 222 292 269 381 q 247 378 224 370 q 201 363 196 361 q 181 356 166 350 q 151 344 148 344 q 136 344 125 357 q 114 370 114 382 q 114 389 122 392 q 131 396 154 400 l 295 424 q 329 483 356 538 q 383 594 383 609 q 383 615 367 615 q 351 615 283 605 l 246 600 q 131 582 114 582 q 93 582 93 590 q 93 600 106 610 q 120 620 145 625 l 170 630 q 238 643 253 645 q 321 654 330 656 q 379 663 390 663 q 408 663 422 657 q 437 651 437 641 q 437 628 408 560 q 378 491 344 429 q 392 440 438 461 q 456 468 458 468 q 461 468 464 465 q 467 462 467 459 q 467 451 461 440 q 455 430 448 424 z"},"x":{"x_min":0,"x_max":388,"ha":388,"o":"m 325 0 q 305 0 270 50 q 236 99 184 184 l 172 204 q 152 168 140 144 q 127 119 115 89 q 95 41 95 32 q 95 18 109 18 q 112 18 119 23 q 126 28 129 28 q 134 28 138 25 q 142 22 142 18 q 142 12 127 -2 q 112 -16 94 -27 q 75 -38 64 -38 q 56 -38 50 -24 q 44 -11 44 4 q 44 31 66 80 q 89 128 134 214 l 150 243 q 130 286 96 352 q 63 417 37 459 q 22 485 22 509 q 22 519 24 523 q 27 527 32 527 q 41 527 51 518 q 61 508 75 484 q 120 412 176 291 q 180 298 199 331 q 230 387 260 434 q 281 464 292 474 q 304 484 325 484 q 354 484 354 468 q 354 464 351 462 q 348 459 338 454 q 327 448 316 437 q 299 420 263 364 q 227 309 195 250 q 217 208 246 166 q 276 123 300 96 q 323 68 329 68 q 343 68 352 94 q 354 101 358 109 q 361 117 366 117 q 378 117 378 106 q 378 93 369 67 q 360 41 348 20 q 336 0 325 0 z"},")":{"x_min":0,"x_max":405,"ha":405,"o":"m 81 -165 q 65 -165 54 -156 q 42 -146 42 -132 q 42 -124 50 -118 q 58 -112 71 -110 q 261 -78 261 192 q 261 542 177 677 q 169 691 160 698 q 150 704 136 712 q 129 715 124 718 q 120 722 120 727 q 120 750 142 750 q 189 750 227 667 q 265 584 286 454 q 308 324 308 189 q 308 64 263 -15 q 218 -94 163 -130 q 108 -165 81 -165 z"},"&":{"x_min":0,"x_max":640,"ha":640,"o":"m 538 35 q 472 35 406 68 q 323 -17 201 -17 q 124 -17 78 23 q 33 63 33 132 q 33 187 68 228 q 102 268 144 292 q 187 315 239 337 q 242 396 269 458 q 296 521 338 562 q 379 603 424 603 q 453 603 470 587 q 487 571 487 542 q 487 485 426 424 q 366 363 286 319 q 287 259 320 208 q 352 156 403 124 q 422 145 438 174 q 452 201 464 230 q 476 260 479 273 q 480 279 482 288 q 484 298 486 303 q 489 308 493 308 q 499 308 504 298 q 509 289 509 281 q 509 259 494 214 q 479 170 461 138 q 448 115 439 102 q 493 80 541 80 q 595 80 622 122 q 650 165 664 224 q 667 234 670 240 q 672 247 675 247 q 679 247 683 244 q 687 240 687 236 q 687 206 674 159 q 662 112 628 74 q 595 35 538 35 z m 424 566 q 391 566 358 528 q 326 491 305 440 q 284 390 284 358 q 340 390 394 444 q 449 499 449 540 q 449 551 443 558 q 437 566 424 566 z m 240 294 q 237 293 199 278 q 161 262 127 222 q 93 183 93 134 q 93 88 122 61 q 150 34 209 34 q 259 34 296 50 q 334 65 367 91 q 316 127 281 180 q 246 233 240 294 z"},"_":{"x_min":0,"x_max":472,"ha":472,"o":"m 472 -79 l 472 -122 l -1 -122 l -1 -79 z"},"v":{"x_min":0,"x_max":535,"ha":535,"o":"m 512 480 q 460 421 415 311 q 370 201 344 73 q 341 58 334 13 l 329 -22 q 326 -38 316 -47 q 305 -56 279 -56 q 274 -56 245 4 q 216 65 184 135 l 141 229 q 102 314 76 362 q 50 410 38 410 q 34 410 32 405 q 29 400 26 400 q 21 400 18 404 q 14 409 14 414 q 14 427 28 448 q 43 469 57 469 q 67 469 72 465 q 77 461 81 456 q 85 451 87 448 q 111 418 170 290 q 191 245 274 55 l 297 2 q 297 28 307 86 q 329 204 373 320 q 417 436 476 514 q 488 530 496 536 q 503 543 515 543 q 520 543 531 528 q 542 512 542 507 q 542 502 528 493 q 515 484 512 480 z"},"O":{"x_min":0,"x_max":716,"ha":716,"o":"m 270 3 q 216 3 168 26 q 120 48 90 92 q 60 136 60 198 q 60 304 115 418 q 170 531 268 631 q 278 640 287 643 q 296 646 308 646 q 318 646 328 641 q 337 636 337 629 q 337 625 334 618 q 330 610 329 608 q 335 608 344 610 q 352 611 377 611 q 406 611 456 602 q 505 592 528 582 q 593 553 627 508 q 661 462 661 410 q 661 307 603 213 q 545 119 454 61 q 363 3 270 3 z m 511 544 q 482 557 438 557 q 424 557 400 555 l 363 554 q 315 554 315 574 q 315 581 316 587 q 317 593 318 595 q 297 595 284 583 q 202 498 158 402 q 113 306 113 215 q 113 130 156 92 q 198 53 272 53 q 356 53 436 101 q 517 149 568 227 q 618 305 618 389 q 618 447 591 484 q 564 520 511 544 z"},"(":{"x_min":0,"x_max":405,"ha":405,"o":"m 330 -156 q 299 -156 250 -132 q 202 -109 161 -40 q 120 29 120 154 q 120 283 155 423 q 190 563 242 656 q 295 750 343 750 q 365 750 365 727 q 365 720 352 716 q 339 711 328 705 q 317 699 307 683 q 254 597 210 466 q 167 334 167 157 q 167 68 183 16 q 199 -36 236 -63 q 273 -90 340 -101 q 353 -103 361 -109 q 369 -115 369 -123 q 369 -137 358 -146 q 346 -156 330 -156 z"},"C":{"x_min":0,"x_max":548,"ha":548,"o":"m 557 143 q 515 86 444 32 q 373 -21 288 -21 q 198 -21 141 30 q 84 82 84 183 q 84 252 108 339 q 132 426 164 490 q 197 555 240 598 q 284 641 328 641 q 371 641 394 610 q 418 579 418 533 q 418 516 412 498 q 405 481 397 469 q 389 457 385 457 q 377 457 377 466 q 377 469 380 480 q 384 490 384 497 q 384 522 378 544 q 373 563 358 576 q 343 588 325 588 q 253 588 190 449 q 165 393 148 323 q 131 253 131 188 q 131 143 150 106 q 168 69 202 47 q 237 25 283 25 q 356 25 416 60 q 475 95 533 150 q 535 152 547 172 q 559 193 565 193 q 571 193 573 190 q 575 187 575 179 q 575 169 557 143 z"},"W":{"x_min":0,"x_max":709,"ha":709,"o":"m 624 278 q 619 224 605 159 q 591 94 571 48 q 551 1 530 1 q 517 1 500 46 q 483 91 456 178 l 439 234 q 421 292 399 352 q 377 411 365 436 l 322 289 q 263 87 236 12 q 235 10 230 -2 q 226 -15 215 -22 q 204 -28 186 -28 q 182 -28 170 24 q 157 76 144 139 q 111 282 109 290 q 85 388 70 437 q 54 486 42 496 q 25 509 25 524 q 25 531 36 540 q 46 548 60 548 q 72 548 79 546 q 86 545 90 538 q 104 515 144 344 q 148 331 154 305 q 175 218 189 155 q 197 123 202 98 q 208 72 212 59 q 213 68 232 129 q 265 231 283 302 q 302 374 318 422 q 334 469 343 481 q 349 488 360 494 q 370 499 380 499 q 387 499 391 494 q 395 490 398 483 q 401 476 404 471 q 414 451 436 387 q 459 323 477 261 l 491 215 q 523 104 538 67 q 573 137 586 301 q 593 363 593 476 l 592 577 q 592 590 595 596 q 598 601 609 601 q 621 601 632 594 q 643 586 643 577 q 643 505 637 423 q 631 341 624 278 z"},"A":{"x_min":0,"x_max":622,"ha":622,"o":"m 573 285 q 566 279 544 274 q 522 270 514 269 q 522 231 522 232 q 529 207 537 163 q 555 62 574 -9 q 579 -32 579 -36 q 579 -46 571 -53 q 563 -60 552 -60 q 542 -60 534 -50 q 526 -39 523 -31 q 514 3 506 45 q 499 87 489 146 q 485 172 476 210 q 467 249 464 261 q 405 253 261 229 l 203 219 l 182 160 l 154 80 q 119 -29 104 -88 q 101 -102 92 -112 q 83 -121 70 -121 q 59 -121 52 -115 q 44 -109 44 -98 q 44 -87 56 -52 q 68 -16 70 -9 q 74 1 86 37 q 99 76 120 132 q 140 187 147 205 q 96 193 71 186 q 33 176 24 176 q 13 176 8 184 q 2 193 2 203 q 2 215 8 220 q 14 224 28 228 q 66 237 108 246 q 151 255 167 258 q 177 287 182 307 q 186 320 192 340 q 199 359 207 388 l 222 439 q 260 573 266 592 q 271 606 276 614 q 280 622 288 622 q 308 622 324 616 q 326 618 330 624 q 335 631 340 634 q 346 636 355 636 q 373 636 396 595 q 420 554 442 498 q 455 465 475 400 q 495 334 501 313 q 516 315 526 318 q 537 322 540 323 q 545 325 551 330 q 557 335 562 338 q 567 340 573 337 q 586 331 586 312 q 586 305 582 297 q 579 289 573 285 z m 404 474 q 390 511 368 550 q 346 589 331 599 l 320 573 q 301 535 291 504 q 267 432 215 266 l 332 286 l 428 301 l 455 305 q 450 323 434 380 q 418 438 404 474 z"},"f":{"x_min":0,"x_max":420,"ha":420,"o":"m 431 585 q 424 585 420 592 q 417 598 414 609 q 403 643 380 666 q 358 690 332 690 q 262 690 232 596 q 201 501 201 374 q 231 376 268 384 q 306 391 318 393 q 389 408 412 408 q 432 408 432 390 q 432 376 426 360 q 420 344 408 344 q 398 344 388 348 q 374 354 350 354 q 334 354 284 344 l 204 332 q 204 307 210 193 q 220 17 220 -88 q 220 -107 216 -114 q 212 -122 200 -122 q 186 -122 179 -106 q 172 -90 172 -70 q 172 45 157 291 l 155 323 q 147 322 104 314 q 60 306 40 306 q 29 306 22 311 q 14 316 14 326 q 14 351 32 352 q 58 353 95 356 q 132 360 152 364 q 152 528 196 630 q 241 733 329 733 q 361 733 388 717 q 416 701 432 678 q 449 655 449 636 q 449 624 444 604 q 438 585 431 585 z"},"Q":{"x_min":0,"x_max":705,"ha":705,"o":"m 516 120 l 499 104 q 501 93 503 84 q 505 74 507 65 q 518 24 532 -12 q 546 -49 554 -49 q 566 -49 582 -9 q 586 1 590 4 q 595 7 601 7 q 605 7 609 5 q 613 3 613 0 q 613 -5 603 -36 q 593 -67 580 -93 q 567 -119 555 -119 q 537 -119 527 -105 q 517 -91 512 -76 q 506 -62 504 -57 q 491 -30 469 42 l 460 71 q 397 27 354 12 q 311 -4 253 -4 q 193 -4 148 27 q 102 58 76 116 q 51 175 51 256 q 51 362 102 464 q 153 567 228 652 q 231 656 242 669 q 253 682 266 690 q 280 698 295 698 q 311 698 326 695 q 332 703 336 706 q 341 708 351 708 q 429 708 498 680 q 568 653 612 594 q 656 534 656 444 q 656 338 620 264 q 584 190 516 120 z m 348 658 q 348 646 338 637 q 329 628 314 628 q 301 628 275 632 q 195 555 148 458 q 101 362 101 248 q 101 147 142 95 q 184 43 255 43 q 315 43 353 58 q 391 73 450 116 l 437 183 q 411 311 411 320 q 411 333 419 342 q 427 350 445 350 q 453 350 462 313 q 470 276 482 203 l 491 150 q 548 212 580 276 q 613 340 613 435 q 613 512 576 562 q 540 612 480 635 q 420 658 348 658 z"},"w":{"x_min":0,"x_max":713,"ha":713,"o":"m 524 -6 q 494 -6 467 52 q 440 110 422 192 q 405 274 401 341 q 374 289 343 224 q 312 158 294 112 q 267 41 246 -26 q 245 -28 243 -36 q 241 -43 238 -46 q 234 -49 227 -49 q 212 -49 204 -42 q 197 -36 191 -22 l 183 19 q 165 117 145 205 q 123 296 100 355 q 77 414 65 414 q 61 414 53 408 q 45 401 38 397 q 31 393 26 395 q 14 401 14 409 q 14 417 26 434 q 38 451 54 464 q 69 478 81 478 q 90 478 96 474 q 103 469 110 460 q 123 443 146 380 q 169 318 188 229 l 229 54 q 275 182 314 266 q 352 351 401 442 q 420 476 441 476 q 455 476 464 466 q 473 456 473 450 q 473 446 468 441 q 463 436 460 431 q 452 420 448 406 q 443 392 443 363 q 443 328 456 254 q 468 179 490 120 q 511 61 536 61 q 551 61 573 111 q 595 161 612 234 q 628 308 628 376 q 628 390 614 408 q 603 423 603 430 q 603 436 612 448 q 622 459 632 459 q 645 459 656 438 q 668 417 668 396 q 668 294 642 202 q 615 109 580 52 q 545 -6 524 -6 z"},"-":{"x_min":0,"x_max":340,"ha":340,"o":"m 230 225 l 163 217 q 139 214 118 212 q 97 211 67 211 q 54 211 44 216 q 34 221 34 233 q 34 246 43 250 q 52 254 73 254 q 111 254 126 254 q 142 255 154 258 q 158 259 177 262 q 196 266 238 272 q 246 273 252 285 q 257 297 263 297 q 274 297 286 284 q 297 272 297 259 q 297 242 283 236 q 269 229 230 225 z"},"E":{"x_min":0,"x_max":592,"ha":592,"o":"m 552 617 q 525 602 468 585 q 410 568 373 561 q 315 550 256 544 q 198 537 181 536 q 182 478 184 416 q 186 355 187 332 q 226 337 304 351 l 342 357 q 405 368 439 397 q 457 411 465 411 q 472 411 476 404 q 481 396 481 388 q 481 370 440 348 q 400 327 351 317 q 310 308 259 300 q 208 292 192 290 q 198 119 227 36 q 256 26 284 22 q 312 17 356 17 q 400 17 440 28 q 480 40 504 57 q 529 74 529 89 q 529 97 526 104 q 523 112 518 120 q 516 123 512 130 q 507 136 507 140 q 507 150 529 150 q 545 150 556 136 q 568 123 568 107 q 568 75 540 44 q 511 13 462 -6 q 412 -26 352 -26 q 291 -26 252 -20 q 213 -13 193 6 q 169 33 160 100 q 150 167 143 279 q 124 274 100 270 q 77 267 65 267 q 53 267 46 274 q 38 282 38 293 q 38 300 40 305 q 43 310 48 311 q 81 315 96 316 l 139 321 q 135 450 131 531 q 116 531 107 530 l 61 529 q 52 529 47 534 q 42 539 42 545 q 42 569 74 577 q 86 579 104 582 q 123 584 129 584 q 148 605 171 605 q 175 605 178 598 q 180 592 180 589 q 246 592 337 604 q 397 612 522 642 l 559 650 q 569 650 569 638 q 569 626 552 617 z"},"s":{"x_min":0,"x_max":445,"ha":445,"o":"m 161 -34 q 118 -34 103 -26 q 88 -18 88 -4 q 88 5 111 28 q 134 50 142 50 q 154 50 154 45 q 154 41 149 37 q 144 33 144 30 q 144 26 156 22 q 169 18 187 18 q 229 18 272 34 q 314 49 341 74 q 368 99 368 127 q 368 154 351 170 q 334 186 308 194 q 283 201 223 215 q 157 230 120 242 q 84 253 62 270 q 40 288 40 315 q 40 363 87 403 q 134 443 195 466 q 256 489 289 489 q 323 489 323 469 q 323 457 315 442 q 307 428 291 428 q 285 428 278 432 q 271 437 264 437 q 244 437 201 424 q 158 411 123 385 q 88 359 88 322 q 88 298 116 286 q 143 275 218 258 q 227 255 236 254 q 245 252 252 250 q 329 232 370 209 q 411 186 411 140 q 411 96 376 56 q 340 15 282 -10 q 224 -34 161 -34 z"},">":{"x_min":0,"x_max":484,"ha":484,"o":"m 350 117 q 329 112 257 83 q 196 58 154 44 q 112 30 85 30 q 61 30 53 36 q 45 42 45 52 q 45 72 86 79 q 152 91 277 143 q 303 155 312 157 q 330 163 353 170 q 376 177 385 180 l 228 290 q 211 301 161 335 q 111 369 90 385 q 76 396 71 402 q 66 409 66 420 q 66 429 80 435 q 93 441 106 441 q 109 441 162 402 q 214 362 246 338 q 295 300 369 245 q 396 229 420 210 q 444 190 444 175 q 444 163 419 146 q 394 130 350 117 z"},"l":{"x_min":0,"x_max":200,"ha":200,"o":"m 106 5 q 94 5 84 34 q 73 62 73 120 q 74 233 76 393 q 79 553 81 634 q 82 663 92 688 q 101 713 125 713 q 133 713 136 704 q 138 696 138 672 q 138 671 138 666 q 137 660 137 646 q 119 383 119 133 q 119 101 134 65 q 148 29 148 27 q 148 17 135 11 q 122 5 106 5 z"},"8":{"x_min":0,"x_max":693,"ha":693,"o":"m 309 -98 q 262 -98 224 -86 q 187 -74 160 -52 q 133 -29 118 4 q 104 36 104 76 q 104 103 112 130 q 119 157 132 182 q 144 206 161 226 q 178 247 198 262 q 186 260 174 258 q 162 257 149 257 q 125 257 104 266 q 84 276 69 292 q 54 308 46 328 q 38 349 38 372 q 38 417 50 458 q 63 498 84 532 q 106 567 136 595 q 166 623 201 644 q 223 657 235 661 q 247 665 259 665 q 266 665 272 661 q 277 657 277 651 q 283 653 298 656 q 312 660 333 660 q 388 660 426 626 q 463 593 463 530 q 463 492 445 459 q 434 439 415 416 q 396 392 383 379 q 385 379 398 382 q 412 384 441 384 q 483 384 521 372 q 559 359 588 335 q 617 311 634 277 q 651 243 651 200 q 651 146 621 92 q 591 39 542 -3 q 494 -45 432 -72 q 371 -98 309 -98 z m 321 615 q 296 615 277 607 q 277 602 270 596 q 264 591 257 591 q 247 591 236 590 q 225 588 213 586 q 187 577 164 556 q 141 534 124 506 q 107 477 96 443 q 86 409 86 376 q 86 342 106 324 q 125 305 163 305 q 202 305 246 326 q 290 347 327 380 q 364 413 388 454 q 412 494 412 532 q 412 571 386 593 q 361 615 321 615 z m 328 324 q 247 278 200 214 q 153 151 153 82 q 153 13 194 -19 q 235 -51 310 -51 q 360 -51 412 -30 q 464 -9 506 26 q 549 60 576 104 q 603 149 603 197 q 603 230 590 257 q 576 284 552 302 q 529 321 497 331 q 465 341 427 341 q 373 341 328 324 z"},"\\":{"x_min":0,"x_max":364,"ha":364,"o":"m 313 -122 q 310 -123 305 -123 q 296 -123 289 -117 q 282 -111 279 -101 q 275 -89 270 -57 q 252 51 210 195 q 192 259 162 354 q 132 449 122 482 q 92 574 67 658 q 55 699 55 727 q 55 754 69 758 q 72 759 77 759 q 92 759 99 744 q 115 704 130 651 l 159 545 q 175 481 181 461 q 204 382 237 284 q 271 181 292 107 q 302 70 314 12 q 325 -45 325 -84 q 325 -119 313 -122 z"},"e":{"x_min":0,"x_max":464,"ha":464,"o":"m 436 240 q 436 222 410 161 q 383 100 330 48 q 276 -4 198 -4 q 134 -4 91 36 q 48 76 48 159 q 48 237 84 314 q 120 390 178 438 q 236 487 298 487 q 335 487 360 470 q 386 454 386 423 q 386 388 346 355 q 307 322 244 297 q 181 272 114 261 q 102 215 102 171 q 102 113 130 81 q 157 49 208 49 q 285 49 333 104 q 381 159 413 228 q 415 232 420 244 q 425 255 429 255 q 436 255 436 240 z m 286 446 q 248 446 213 421 q 178 396 154 361 q 131 326 124 299 q 170 304 221 325 q 272 346 306 371 q 341 396 341 412 q 341 428 324 437 q 308 446 286 446 z"},"b":{"x_min":0,"x_max":508,"ha":508,"o":"m 239 24 q 195 -9 173 -9 q 162 -9 155 -1 q 148 7 148 18 q 148 29 158 40 q 167 51 186 59 q 255 89 312 146 q 369 202 401 265 q 433 328 433 376 q 433 395 424 404 q 416 414 397 414 q 355 414 311 380 q 267 346 229 291 q 200 249 173 190 q 146 131 132 65 q 124 30 98 30 q 91 30 83 42 q 75 55 75 65 q 75 181 67 406 q 59 631 56 663 q 56 669 55 674 q 54 680 53 685 q 52 691 51 698 q 50 704 50 710 q 50 733 71 733 q 88 733 98 712 q 109 690 109 663 l 109 610 q 109 372 116 244 q 120 181 124 174 q 135 207 158 248 q 182 289 208 324 q 255 388 310 426 q 365 465 410 465 q 441 465 460 445 q 480 425 480 387 q 480 302 412 202 q 344 101 239 24 z"},"%":{"x_min":0,"x_max":986,"ha":986,"o":"m 568 365 q 555 323 526 250 q 521 237 500 178 q 478 120 465 70 q 459 50 423 50 q 407 50 407 82 q 407 87 436 154 q 491 279 527 380 q 563 480 563 554 q 563 569 559 575 q 555 581 548 581 q 510 581 456 564 q 403 546 352 516 q 327 469 288 420 q 248 371 200 338 q 152 305 106 305 q 84 305 67 326 q 50 347 50 386 q 50 427 78 483 q 107 539 144 581 q 180 623 198 623 q 216 623 225 616 q 234 608 234 598 q 234 596 218 582 q 171 539 136 494 q 102 448 102 393 q 102 377 110 368 q 118 360 131 360 q 150 360 186 386 q 223 411 251 445 q 279 479 279 504 q 279 510 270 523 q 260 536 260 544 q 260 559 274 570 q 287 580 308 580 q 324 580 348 569 q 396 594 466 614 q 535 635 560 635 q 594 635 605 621 q 616 607 616 576 q 616 520 568 365 z m 778 -17 q 709 -17 674 26 q 638 70 638 131 q 638 169 650 206 q 662 243 678 266 q 695 290 706 290 q 724 290 733 276 q 742 262 742 246 q 742 241 737 232 q 732 222 725 212 q 708 186 698 166 q 689 145 689 121 q 689 85 710 58 q 730 32 772 32 q 812 32 840 62 q 869 91 884 135 q 898 179 898 220 q 898 263 880 292 q 861 322 838 322 q 817 322 784 307 q 761 297 745 297 q 736 297 730 304 q 724 310 724 318 q 724 339 754 354 q 784 370 820 370 q 881 370 911 328 q 941 286 941 219 q 941 164 922 110 q 904 55 868 19 q 831 -17 778 -17 z"},"m":{"x_min":0,"x_max":749,"ha":749,"o":"m 653 -19 q 635 -19 635 -1 q 635 201 622 308 q 609 416 577 416 q 523 416 419 39 l 419 38 q 419 26 411 18 q 403 9 390 9 q 372 9 372 27 q 372 67 376 151 q 380 245 380 299 q 380 374 376 406 q 371 437 356 437 q 322 437 270 312 q 218 188 161 19 l 152 -7 q 148 -17 140 -24 q 133 -31 124 -31 q 112 -31 108 -29 q 104 -27 103 -17 q 98 32 95 114 q 93 135 91 183 q 81 352 73 412 q 65 471 65 478 q 65 486 73 497 q 81 508 88 508 q 104 508 114 485 q 119 474 125 397 q 131 320 135 206 l 140 53 q 195 223 254 362 q 313 500 362 500 q 395 500 407 452 q 419 404 419 313 q 419 265 417 175 l 416 129 q 457 272 498 369 q 538 466 579 466 q 682 466 682 10 q 682 -2 674 -10 q 666 -19 653 -19 z"},"#":{"x_min":0,"x_max":608,"ha":608,"o":"m 640 518 q 637 502 593 496 q 549 491 455 485 l 435 329 q 464 333 490 336 q 516 339 539 343 q 552 344 563 346 q 574 348 581 348 q 593 348 593 332 l 591 322 q 583 287 469 280 q 457 279 447 278 q 437 278 429 278 l 428 267 q 423 216 418 177 q 413 138 408 110 l 405 89 q 404 78 396 70 q 387 62 376 62 q 360 62 360 109 q 360 119 361 135 q 362 151 364 173 q 367 194 368 208 q 370 221 371 231 q 372 241 374 251 q 375 261 377 275 l 211 268 q 199 207 192 154 q 184 102 182 57 q 181 28 179 23 q 177 12 168 5 q 159 -2 147 -2 q 128 -2 128 59 q 128 75 130 93 q 131 111 133 131 l 157 264 l 83 256 q 76 255 67 254 q 58 253 47 253 q 23 253 23 271 l 24 281 q 28 298 46 306 q 64 313 82 314 q 103 315 124 316 q 146 316 169 316 q 182 368 190 406 q 199 443 204 467 l 161 463 q 134 460 123 460 q 88 460 88 481 q 88 487 89 488 q 91 497 98 503 q 105 509 115 513 q 125 517 137 519 q 149 521 161 521 l 215 523 q 225 584 232 622 q 239 660 244 682 q 249 705 252 716 q 255 728 258 737 q 261 746 268 750 q 276 755 285 755 q 305 755 305 718 q 305 710 304 700 q 302 689 300 675 l 266 524 q 304 525 341 526 q 378 526 410 528 l 419 649 q 421 671 424 692 q 428 712 433 732 q 435 741 442 746 q 450 752 459 752 q 482 752 482 703 q 482 696 482 689 q 481 682 480 674 q 477 639 462 531 l 630 544 q 641 544 641 528 q 641 521 640 518 z m 406 482 l 255 473 l 221 317 q 242 317 261 318 q 280 319 299 320 q 318 320 339 322 q 360 323 385 325 z"},",":{"x_min":0,"x_max":212,"ha":212,"o":"m 67 -125 q 57 -125 50 -120 q 44 -114 44 -105 q 44 -99 56 -76 q 67 -54 70 -49 l 98 5 l 116 51 q 127 81 134 96 q 141 110 148 110 q 159 110 172 98 q 184 85 184 74 q 184 59 160 9 q 137 -41 109 -83 q 81 -125 67 -125 z"},"n":{"x_min":0,"x_max":460,"ha":460,"o":"m 360 -36 q 350 -36 343 -32 q 336 -27 336 -19 q 336 22 342 108 q 348 200 348 261 q 348 320 344 358 q 341 395 328 395 q 294 395 254 310 q 213 226 161 88 l 146 48 q 142 38 132 32 q 123 26 113 26 q 101 26 97 28 q 93 30 92 40 l 84 122 l 69 266 q 62 352 52 416 q 49 431 49 439 q 49 454 62 464 q 75 473 92 473 q 102 473 106 425 q 111 377 116 270 l 120 217 q 128 116 129 89 q 132 95 134 102 q 137 110 141 119 q 195 259 242 352 q 290 446 334 446 q 365 446 376 394 q 388 341 391 259 q 394 168 394 -7 q 394 -19 384 -28 q 374 -36 360 -36 z"},"h":{"x_min":0,"x_max":559,"ha":559,"o":"m 458 -43 q 448 -43 441 -38 q 434 -34 434 -26 l 436 43 q 441 166 441 244 q 441 358 425 404 q 409 449 388 449 q 341 449 270 304 q 199 158 133 -14 q 128 -28 120 -41 q 111 -54 102 -54 q 80 -54 80 -40 q 80 21 75 188 q 70 356 67 409 q 58 588 50 630 q 42 672 42 675 q 42 685 53 690 q 64 695 81 695 q 95 695 102 632 q 108 568 111 469 l 112 441 q 114 410 115 264 q 116 117 116 48 q 162 163 202 253 q 243 343 296 422 q 349 500 394 500 q 432 500 458 436 q 484 373 484 247 q 484 191 486 91 l 487 -14 q 487 -26 479 -34 q 471 -43 458 -43 z"},"z":{"x_min":0,"x_max":529,"ha":529,"o":"m 254 -13 q 208 -13 164 -3 q 121 7 94 24 q 67 40 67 58 q 67 82 86 114 q 105 147 147 208 q 121 208 86 216 q 68 221 68 238 q 68 245 86 245 l 177 246 q 200 289 218 338 q 237 386 237 403 q 237 411 230 411 q 219 411 196 400 q 173 389 165 385 q 104 356 42 356 q 29 356 29 365 q 29 372 58 381 q 98 394 163 430 q 237 471 265 471 q 281 471 290 464 q 299 457 299 446 q 299 421 218 249 q 241 250 293 263 q 310 268 315 268 q 318 268 320 265 q 322 262 322 259 q 322 243 306 236 q 265 217 191 208 l 170 174 q 142 130 127 102 q 112 74 112 61 q 112 48 161 40 q 210 33 258 33 q 327 33 383 54 q 439 75 475 114 q 480 123 485 151 q 486 160 488 168 q 490 175 494 175 q 500 175 502 160 q 505 146 505 124 q 505 99 469 66 q 433 34 374 10 q 316 -13 254 -13 z"},"B":{"x_min":0,"x_max":690,"ha":690,"o":"m 515 104 q 470 59 409 16 q 369 -12 330 -32 q 292 -52 272 -52 q 262 -52 254 -46 q 247 -41 247 -30 q 247 -14 259 -2 q 271 9 291 16 q 301 20 319 24 q 342 28 360 37 q 394 54 440 90 q 485 125 511 153 q 554 199 576 234 q 599 270 599 308 q 599 329 579 338 q 559 348 530 348 q 456 348 395 322 q 368 310 358 305 q 322 289 299 280 q 273 270 249 262 q 225 255 217 252 l 219 214 q 219 199 220 166 q 222 133 222 104 q 222 35 212 -8 q 208 -22 203 -28 q 198 -34 184 -34 q 175 -34 167 -28 q 159 -22 159 -13 q 159 -10 168 21 q 177 52 177 76 q 177 154 170 275 l 167 321 q 161 387 161 425 q 161 454 165 498 q 169 543 171 557 q 133 547 74 521 q 57 514 30 496 q 5 480 -4 480 q -12 480 -18 487 q -24 494 -24 504 q -24 523 43 553 q 110 583 189 606 q 260 627 315 637 q 370 647 428 647 q 481 647 516 626 q 552 606 552 569 q 552 481 456 387 q 499 393 534 393 q 580 393 613 374 q 646 355 646 310 q 646 262 611 214 q 576 165 515 104 z m 420 605 q 379 605 317 596 q 255 586 221 575 q 204 507 204 461 q 204 396 210 297 q 220 298 242 305 q 265 312 284 320 q 379 360 442 424 q 505 488 505 556 q 505 580 482 592 q 459 605 420 605 z"},"K":{"x_min":0,"x_max":575,"ha":575,"o":"m 575 54 q 526 54 366 121 l 339 133 q 282 157 250 169 q 219 181 190 189 q 190 65 184 15 q 173 -25 155 -25 q 146 -25 138 -20 q 131 -15 131 -7 q 131 11 134 42 q 140 106 140 152 l 140 194 q 130 201 126 206 q 121 212 121 219 q 121 228 126 236 q 132 243 139 250 q 146 256 149 260 q 150 281 150 333 q 150 463 113 608 l 109 628 q 109 642 120 650 q 132 658 147 658 q 158 658 170 615 q 181 572 188 506 q 195 439 195 372 l 195 305 q 209 320 258 374 q 307 428 354 482 q 433 575 476 648 q 487 668 503 700 q 518 731 522 731 q 533 731 533 707 q 533 678 524 652 q 515 625 498 595 q 470 546 434 498 q 397 451 341 391 q 320 369 304 353 q 288 337 276 324 q 224 272 193 237 q 206 232 254 215 q 301 198 377 172 q 431 153 467 142 q 503 130 529 121 q 535 119 543 116 q 551 114 560 111 q 594 100 594 87 q 594 74 588 64 q 582 54 575 54 z"},"R":{"x_min":0,"x_max":625,"ha":625,"o":"m 603 28 q 593 28 584 32 q 575 35 557 45 q 494 82 392 117 q 347 132 286 148 q 224 165 189 173 l 196 44 q 197 17 203 -2 q 209 -20 209 -25 q 209 -36 198 -44 q 187 -51 175 -51 q 160 -51 156 -30 q 156 -28 154 -12 q 151 4 151 33 q 151 52 147 114 q 146 135 145 154 q 144 174 144 189 q 141 192 136 196 q 132 200 129 207 q 126 216 124 226 q 122 236 122 241 q 122 248 126 252 q 130 256 138 261 q 132 511 132 547 q 132 579 133 606 q 134 633 134 642 q 128 641 98 637 q 68 633 50 629 q -14 614 -48 600 q -81 587 -112 570 q -121 564 -130 560 q -138 557 -146 557 q -154 557 -160 564 q -166 572 -166 583 q -166 602 -102 627 q -38 652 37 668 q 79 677 144 684 q 209 690 265 690 q 361 690 428 669 q 496 648 530 610 q 565 572 565 523 q 565 460 529 415 q 493 370 434 337 q 374 304 272 262 q 246 250 220 240 q 195 230 186 226 q 186 220 187 217 q 295 193 400 162 l 421 156 q 530 123 582 104 q 634 86 634 74 q 634 62 624 45 q 614 28 603 28 z m 257 647 q 195 647 179 645 q 178 638 176 612 q 175 586 175 560 l 179 400 l 183 276 q 192 277 218 286 q 245 294 263 302 q 390 353 452 404 q 515 456 515 523 q 515 556 486 584 q 457 612 398 630 q 340 647 257 647 z"},"T":{"x_min":0,"x_max":705,"ha":705,"o":"m 660 586 q 657 586 640 592 q 622 597 607 597 q 559 597 498 592 q 437 587 397 578 q 400 530 402 426 q 405 323 405 209 q 405 161 404 102 q 402 43 399 29 q 397 18 386 11 q 374 4 362 4 q 355 4 350 10 q 345 16 345 24 l 346 59 q 352 137 352 251 q 352 333 350 438 q 348 544 346 569 q 146 547 79 528 q 67 524 52 524 q 34 524 17 537 q 0 550 0 565 q 0 575 6 580 q 12 584 21 584 q 78 587 117 590 q 206 598 341 615 q 341 646 342 659 q 344 672 349 672 q 368 672 383 657 q 386 654 388 642 q 390 629 390 625 q 412 626 462 635 q 570 652 610 652 q 658 652 674 640 q 685 632 685 611 q 685 603 678 594 q 671 586 660 586 z"},"P":{"x_min":0,"x_max":556,"ha":556,"o":"m 344 302 q 313 288 281 276 q 249 264 239 261 q 244 139 244 53 q 244 25 250 8 q 257 -10 257 -15 q 257 -26 246 -34 q 235 -41 223 -41 q 208 -41 204 -20 q 204 -18 202 -2 q 199 14 199 43 q 199 121 193 299 q 190 389 190 427 q 190 459 191 486 q 192 514 192 524 q 129 507 83 489 q 68 482 41 466 q 29 459 18 453 q 6 447 0 447 q -8 447 -14 454 q -20 461 -20 471 q -20 484 18 504 q 56 523 110 541 q 165 559 211 568 q 265 578 331 578 q 422 578 474 554 q 526 531 526 484 q 526 425 478 382 q 430 340 344 302 z m 331 538 q 285 538 237 532 q 236 524 234 495 q 233 466 233 440 l 234 367 q 235 343 235 306 q 256 308 324 336 q 390 365 435 400 q 480 436 480 476 q 480 510 437 524 q 394 538 331 538 z"},"|":{"x_min":0,"x_max":364,"ha":364,"o":"m 194 -200 q 171 -200 162 -98 q 152 3 152 67 q 152 155 157 252 q 161 368 161 437 q 161 482 158 537 l 156 634 q 156 737 162 778 q 163 789 170 794 q 176 800 186 800 q 204 800 210 770 q 216 739 216 704 q 216 669 212 491 q 206 271 206 174 q 206 14 218 -116 q 221 -151 221 -170 q 221 -184 214 -192 q 206 -200 194 -200 z"},"t":{"x_min":0,"x_max":494,"ha":494,"o":"m 427 374 q 335 358 324 356 l 259 345 q 259 293 260 236 q 262 179 265 136 q 269 78 279 47 q 289 16 290 12 q 290 2 278 -6 q 265 -15 254 -15 q 248 -15 244 -12 q 240 -8 237 0 q 231 14 226 52 q 220 90 217 136 q 214 177 212 232 q 211 286 211 337 q 155 328 96 315 q 43 304 33 304 q 21 304 10 311 q 0 318 0 330 q 0 343 9 347 q 18 351 39 351 q 54 351 83 356 q 112 362 120 364 q 187 377 211 381 q 211 402 209 436 q 207 482 207 506 q 207 545 210 566 q 212 588 219 605 q 227 625 249 625 q 258 625 261 622 q 264 619 264 611 q 264 605 259 576 q 254 547 254 499 q 254 462 256 416 l 257 389 q 302 396 435 426 q 443 428 448 440 q 454 452 460 452 q 471 452 482 440 q 494 427 494 414 q 494 397 480 388 q 465 379 427 374 z"},"M":{"x_min":0,"x_max":808,"ha":808,"o":"m 739 29 q 727 29 720 30 q 713 32 710 39 q 701 54 689 128 q 677 202 666 298 q 642 591 629 597 q 618 573 595 506 q 572 440 542 333 q 509 218 492 174 q 475 131 462 121 q 454 114 442 108 q 431 101 423 101 q 413 101 410 104 q 407 106 403 119 q 399 134 384 212 q 369 291 361 354 l 355 396 q 338 526 332 541 q 313 524 296 466 q 279 407 257 300 q 236 217 206 30 q 205 19 191 10 q 177 1 166 1 q 150 1 148 32 q 147 63 134 166 q 122 269 112 347 q 98 458 74 553 q 67 583 67 587 q 67 602 82 612 q 96 621 113 621 q 121 621 130 559 q 139 497 149 403 l 152 370 q 156 337 161 301 q 180 148 182 109 q 202 225 227 342 l 236 386 q 258 492 284 546 q 310 601 351 601 q 364 601 380 534 q 396 466 405 376 q 412 312 423 251 q 434 190 443 166 q 449 183 468 241 q 486 299 502 351 q 551 518 606 650 q 616 671 626 680 q 635 690 659 690 q 672 690 687 576 q 702 462 712 312 q 739 100 761 81 q 776 68 776 53 q 776 46 764 38 q 753 29 739 29 z"},"g":{"x_min":0,"x_max":542,"ha":542,"o":"m 392 -236 q 349 -277 302 -302 q 256 -328 222 -328 q 203 -328 195 -318 q 187 -309 187 -296 q 187 -284 232 -268 q 300 -246 358 -194 q 403 -154 424 -103 q 445 -52 445 1 q 445 61 438 111 q 430 161 414 234 q 396 311 389 365 q 372 319 336 254 q 301 189 252 129 q 206 72 168 44 q 131 16 96 16 q 66 16 52 40 q 37 63 37 104 q 37 172 79 264 q 121 356 184 422 q 247 488 308 488 q 329 488 340 473 q 352 458 352 437 q 352 410 341 410 q 338 410 334 418 q 329 425 323 431 q 317 437 310 437 q 259 437 206 380 q 154 323 120 246 q 85 170 85 121 q 85 94 92 82 q 100 70 116 70 q 140 70 174 98 q 208 126 255 186 q 297 239 332 310 q 366 380 384 444 q 386 450 390 454 q 395 458 401 458 q 410 458 420 452 q 429 447 429 441 q 429 437 428 432 q 426 428 425 427 q 432 372 458 256 q 477 174 486 118 q 496 63 496 10 q 496 -68 465 -132 q 434 -196 392 -236 z"},"j":{"x_min":0,"x_max":218,"ha":218,"o":"m 92 651 q 73 651 58 662 q 43 674 34 688 q 25 702 25 709 q 25 720 36 730 q 46 740 57 740 q 64 740 70 734 q 75 727 82 714 q 89 700 96 693 q 99 690 108 680 q 118 671 118 668 q 118 651 92 651 z m 46 -194 q 4 -194 -26 -180 q -56 -165 -71 -145 q -86 -125 -86 -107 q -86 -99 -80 -91 q -73 -83 -69 -83 q -63 -83 -60 -88 q -56 -93 -54 -96 q -34 -123 -14 -137 q 5 -151 33 -151 q 77 -151 94 -122 q 111 -92 111 -31 q 111 2 106 52 q 102 101 97 145 q 96 159 94 173 q 92 187 91 201 q 85 269 71 360 q 61 427 61 444 q 61 458 64 462 q 67 467 80 467 q 98 467 108 442 q 117 418 121 368 q 125 308 139 195 q 159 11 159 -26 q 159 -110 128 -152 q 97 -194 46 -194 z"},"i":{"x_min":0,"x_max":218,"ha":218,"o":"m 84 611 q 67 611 50 625 q 32 639 32 648 q 32 659 42 669 q 53 679 64 679 q 79 674 89 663 q 97 655 107 642 q 117 629 117 626 q 117 611 84 611 z m 114 -23 q 100 -22 94 22 q 87 66 80 189 q 76 270 73 348 q 70 425 69 467 q 69 478 72 484 q 76 489 86 489 q 109 489 115 470 q 121 451 121 397 l 120 279 q 120 178 126 117 q 126 114 135 53 q 142 11 142 -3 q 142 -13 134 -18 q 125 -24 114 -23 z"},"y":{"x_min":0,"x_max":425,"ha":425,"o":"m 371 342 q 359 254 358 243 q 345 120 340 56 q 334 -9 334 -61 q 334 -104 340 -129 q 347 -154 354 -168 q 362 -183 362 -186 q 362 -195 346 -202 q 330 -209 313 -209 q 300 -209 292 -174 q 285 -139 285 -65 q 285 -9 296 86 l 311 224 q 284 172 244 124 q 205 77 163 77 q 124 77 93 145 q 62 213 44 299 q 27 385 27 425 q 27 450 42 450 q 64 450 70 409 q 108 131 176 131 q 203 131 224 152 q 244 174 272 219 q 285 240 300 275 q 315 310 323 333 l 330 434 q 332 457 336 466 q 340 476 352 476 q 362 476 372 464 q 382 453 382 442 q 382 419 371 342 z"},"@":{"x_min":0,"x_max":1000,"ha":1000,"o":"m 637 -98 q 574 -98 516 -66 q 457 -34 418 28 q 378 90 371 176 q 325 82 262 10 q 199 -62 139 -62 q 105 -62 85 -36 q 65 -11 65 26 q 65 138 146 237 q 228 336 332 398 q 435 459 483 459 q 492 459 495 455 q 498 451 498 443 q 498 437 488 428 q 478 418 466 410 q 455 403 452 401 q 454 399 458 392 q 462 386 462 380 q 462 362 441 318 q 419 270 419 210 q 419 131 451 73 q 483 15 535 -16 q 587 -47 645 -47 q 710 -47 772 -27 q 834 -7 874 33 q 914 73 914 131 q 914 293 794 400 q 673 508 504 559 q 335 610 184 616 q 158 617 142 623 q 125 629 125 646 q 125 661 135 666 q 145 672 164 672 q 324 672 510 614 q 696 557 828 434 q 960 311 960 128 q 960 55 913 4 q 866 -47 792 -72 q 718 -98 637 -98 z m 125 41 q 125 21 132 10 q 139 0 150 0 q 199 0 256 68 q 312 136 353 227 q 379 283 386 326 q 393 366 393 375 q 353 360 288 308 q 224 256 174 185 q 125 114 125 41 z"},".":{"x_min":0,"x_max":212,"ha":212,"o":"m 139 -25 q 120 -25 104 -4 q 89 18 80 44 q 70 71 70 79 q 70 90 80 100 q 91 110 102 110 q 109 110 113 104 q 117 99 125 86 q 135 68 142 63 q 155 53 164 26 q 172 -1 172 -10 q 172 -25 139 -25 z"},"p":{"x_min":0,"x_max":521,"ha":521,"o":"m 162 80 q 160 12 160 -31 q 160 -88 165 -135 q 167 -153 167 -160 q 167 -176 160 -188 q 153 -199 140 -199 q 122 -199 120 -186 q 119 -169 118 -134 q 116 -98 116 -62 l 117 78 q 112 78 98 77 q 85 76 72 76 q 48 76 48 109 q 48 133 60 133 q 64 133 84 127 q 104 121 118 121 l 117 404 q 109 405 84 408 q 59 410 48 417 q 36 424 36 437 q 36 463 46 463 q 57 463 73 455 q 75 454 85 450 q 95 445 113 443 q 119 459 124 465 q 130 471 146 471 q 166 471 166 463 q 166 460 163 452 q 160 445 160 438 q 222 429 300 402 q 379 374 436 332 q 494 290 494 240 q 494 169 402 130 q 310 91 162 80 z m 158 400 q 160 342 161 246 q 162 151 162 120 q 222 120 290 136 q 358 151 404 178 q 451 204 451 236 q 451 278 403 312 q 355 346 288 368 q 220 390 158 400 z"},"X":{"x_min":0,"x_max":388,"ha":388,"o":"m 326 6 q 309 6 256 96 q 202 185 176 250 q 149 200 123 142 q 97 84 97 68 q 97 65 100 60 q 103 55 107 53 q 108 52 113 50 q 118 47 118 43 q 118 38 110 28 q 103 19 101 16 q 98 12 94 7 q 90 2 85 -6 q 81 -12 67 -34 q 53 -57 47 -57 q 35 -57 28 -48 q 21 -39 21 -24 q 21 10 63 114 q 105 218 148 306 q 73 477 47 529 l 25 572 q 13 594 4 612 q -5 630 -5 635 q -5 649 5 649 q 14 649 34 628 q 55 606 73 572 q 93 535 126 466 q 159 398 176 356 q 281 553 294 572 q 309 593 319 600 q 329 607 355 607 q 367 607 376 604 q 384 601 384 597 q 384 592 366 576 q 343 555 335 543 q 323 527 288 465 q 253 403 224 348 l 202 308 q 241 222 280 155 q 320 88 334 88 q 340 88 344 96 q 348 103 355 123 q 357 128 360 140 q 364 153 369 153 q 376 153 378 150 q 381 148 381 138 q 381 127 372 94 q 362 60 350 33 q 337 6 326 6 z"},"*":{"x_min":0,"x_max":358,"ha":358,"o":"m 331 460 q 324 460 294 477 q 265 494 234 514 l 206 532 q 205 490 200 444 q 196 397 190 372 q 189 368 184 360 q 178 353 175 353 q 160 353 159 363 q 156 375 156 457 l 154 533 l 125 510 q 78 472 68 466 q 54 457 35 457 q 32 457 28 460 q 24 463 24 467 q 24 484 28 492 q 32 500 38 506 q 45 512 48 515 q 62 529 139 576 l 90 609 q 66 625 46 638 q 25 652 23 657 q 21 661 15 671 q 9 681 9 689 q 9 693 16 700 q 24 706 30 706 q 40 706 48 701 q 59 695 101 660 l 151 621 l 151 719 q 151 736 154 744 q 156 753 165 753 q 186 753 194 736 q 202 724 206 619 q 242 640 272 655 q 303 670 314 670 q 318 670 320 666 q 322 663 322 659 q 322 652 316 648 q 311 643 309 641 q 294 626 214 575 q 222 569 276 535 q 283 530 311 512 q 339 494 342 489 q 344 486 346 483 q 348 480 348 474 q 348 471 342 466 q 335 460 331 460 z"},"Y":{"x_min":0,"x_max":486,"ha":486,"o":"m 429 550 q 418 524 401 475 q 357 346 334 190 q 331 164 328 134 q 325 104 325 83 q 325 71 332 60 q 340 49 340 46 q 340 40 327 24 q 314 9 298 -4 q 282 -17 272 -17 q 252 -17 252 0 q 252 22 277 150 q 302 279 319 348 q 295 321 276 306 q 257 291 229 291 q 189 291 148 354 q 107 418 66 507 l 56 527 q 42 556 28 577 q 14 598 14 601 q 14 606 22 608 q 29 611 38 611 q 71 611 97 548 q 133 462 168 400 q 204 337 242 337 q 267 337 286 354 q 305 371 317 394 q 328 415 344 454 q 359 493 367 518 q 399 614 402 629 q 407 650 411 658 q 415 667 424 667 q 435 667 445 660 q 455 652 455 642 q 455 625 449 606 q 443 587 429 550 z"},"c":{"x_min":0,"x_max":371,"ha":371,"o":"m 292 127 q 240 64 198 30 q 157 -4 112 -4 q 74 -4 50 29 q 25 62 25 105 q 25 169 59 267 q 93 365 145 437 q 197 509 249 509 q 271 509 287 493 q 296 484 304 469 q 312 454 312 442 q 312 425 308 402 q 303 380 298 380 q 288 380 285 391 q 282 402 281 419 q 278 445 275 454 q 272 462 266 462 q 219 462 175 396 q 131 331 103 244 q 75 158 75 111 q 75 45 119 45 q 151 45 178 61 q 204 77 233 106 q 287 161 317 201 q 319 204 328 216 q 338 229 342 229 q 354 229 354 220 q 354 214 334 183 q 313 152 292 127 z"},"!":{"x_min":0,"x_max":200,"ha":200,"o":"m 134 571 q 119 424 119 277 q 119 245 123 212 q 127 179 127 173 q 127 149 107 149 q 100 149 92 166 q 84 182 78 208 q 73 235 73 264 q 73 344 81 584 q 82 613 92 638 q 101 663 125 663 q 133 663 136 654 q 138 646 138 622 q 138 619 134 571 z m 139 -25 q 120 -25 108 -14 q 96 -2 91 12 q 86 27 86 35 q 86 46 96 56 q 107 66 118 66 q 125 66 129 60 q 133 54 138 43 q 146 25 154 19 q 162 13 167 4 q 172 -6 172 -10 q 172 -25 139 -25 z"},"/":{"x_min":0,"x_max":364,"ha":364,"o":"m 313 658 q 297 599 254 468 q 195 280 170 195 q 128 51 110 -57 q 105 -89 101 -101 q 98 -111 91 -117 q 84 -123 75 -123 q 70 -123 67 -122 q 55 -119 55 -84 q 55 -45 68 18 q 81 81 89 107 q 110 181 144 284 q 150 303 168 356 q 185 410 199 461 q 205 481 221 545 l 250 651 q 265 704 281 744 q 289 759 303 759 q 308 759 311 758 q 325 754 325 727 q 325 699 313 658 z"},"[":{"x_min":0,"x_max":405,"ha":405,"o":"m 330 -142 q 298 -142 244 -151 q 237 -153 221 -155 q 180 -161 158 -166 q 136 -170 131 -170 q 123 -170 120 -164 q 118 -157 119 -138 l 120 154 q 120 322 103 523 l 101 551 q 101 569 137 584 q 139 585 196 621 q 253 657 304 657 q 326 657 326 634 q 326 623 317 619 q 308 615 290 612 q 264 608 255 603 q 219 585 188 566 q 158 548 152 538 q 156 497 160 376 q 165 254 165 157 l 163 -119 q 167 -119 184 -116 q 200 -114 228 -107 q 279 -94 304 -88 q 330 -83 351 -83 q 362 -83 366 -90 q 369 -98 369 -109 q 369 -123 358 -132 q 346 -142 330 -142 z"},"6":{"x_min":0,"x_max":583,"ha":583,"o":"m 293 12 q 297 -13 307 -32 q 311 -40 322 -50 q 332 -59 332 -61 q 332 -70 320 -79 q 309 -88 297 -88 q 279 -88 265 -65 q 257 -51 252 -32 q 247 -14 246 0 q 244 0 239 0 q 234 -1 224 -1 q 149 -1 106 64 q 64 128 64 228 q 64 358 132 476 q 201 593 316 659 q 324 665 334 668 q 345 671 351 671 q 361 671 370 664 q 379 658 379 647 q 379 628 353 613 q 223 538 168 444 q 112 350 112 225 q 112 152 143 100 q 174 49 246 49 q 255 148 288 220 q 320 292 368 329 q 415 366 468 366 q 513 366 536 340 q 560 314 560 274 q 560 225 530 176 q 500 126 440 83 q 380 40 293 12 z m 465 319 q 401 319 354 250 q 307 182 292 56 q 352 71 403 106 q 454 142 484 185 q 515 228 515 265 q 515 319 465 319 z"},"r":{"x_min":0,"x_max":414,"ha":414,"o":"m 360 389 q 353 389 346 395 q 340 401 332 412 q 325 422 314 429 q 302 436 290 436 q 261 436 212 360 q 163 283 116 167 q 117 144 120 109 q 122 74 123 57 l 126 17 q 126 3 120 -8 q 114 -18 98 -18 q 81 -18 76 28 q 71 73 70 160 q 69 182 68 223 q 68 264 66 321 q 63 407 63 444 q 63 467 91 467 q 108 467 112 452 q 115 438 115 397 l 115 238 q 145 315 180 371 q 215 427 248 456 q 282 486 308 486 q 330 486 350 476 q 370 466 382 450 q 394 435 394 421 q 394 412 382 400 q 369 389 360 389 z"},"2":{"x_min":0,"x_max":687,"ha":687,"o":"m 632 -25 q 595 -29 512 -41 q 440 -52 414 -55 l 335 -67 q 272 -77 232 -82 q 193 -86 146 -86 q 129 -86 114 -74 q 100 -62 100 -40 q 100 -28 104 -21 q 108 -14 117 -4 q 175 54 216 100 q 258 146 319 219 q 381 294 412 347 q 442 400 442 457 q 442 509 412 538 q 381 566 332 566 q 295 566 267 556 q 239 545 189 516 q 177 510 163 498 q 149 487 145 484 q 131 472 118 463 q 104 454 97 454 q 73 454 73 481 q 73 504 99 522 q 105 526 142 547 q 164 558 177 566 q 223 592 258 603 q 292 614 340 614 q 409 614 452 571 q 494 528 494 462 q 494 412 472 362 q 449 311 421 273 q 393 235 354 189 q 333 164 248 72 l 196 15 q 193 12 180 -2 q 166 -17 166 -23 q 166 -35 190 -35 q 222 -35 274 -26 q 327 -17 337 -15 l 424 0 q 444 3 523 13 q 593 22 610 26 q 623 34 638 42 q 653 49 658 49 q 678 49 678 12 q 678 -1 666 -10 q 653 -20 632 -25 z"},"{":{"x_min":0,"x_max":407,"ha":407,"o":"m 262 -163 q 217 -163 180 -138 q 143 -112 122 -70 q 100 -28 100 18 q 100 75 124 120 q 149 166 188 208 q 197 218 208 229 q 220 240 228 246 q 182 261 148 280 q 114 300 114 313 q 114 324 132 336 q 150 348 188 368 q 206 377 221 386 q 236 395 236 400 q 236 406 216 428 q 194 452 181 472 q 168 493 168 516 q 168 550 186 584 q 205 618 224 640 q 242 663 287 711 q 291 716 295 722 q 299 728 302 731 q 306 734 312 734 q 322 734 328 726 q 334 719 334 709 q 334 700 330 694 q 327 688 322 682 q 318 677 315 674 l 300 659 q 263 625 238 592 q 213 558 213 519 q 213 500 224 484 q 235 467 257 443 q 274 425 282 414 q 290 402 290 391 q 290 377 233 353 q 208 342 194 334 q 181 326 181 319 q 181 309 200 300 q 218 291 238 286 q 240 285 269 279 q 289 275 298 272 q 306 269 306 262 q 306 254 271 226 q 241 202 229 188 q 199 154 178 114 q 156 75 156 19 q 156 -18 171 -49 q 186 -80 210 -98 q 235 -115 262 -115 q 286 -115 328 -101 q 347 -94 354 -94 q 360 -94 366 -101 q 373 -108 373 -119 q 373 -128 356 -138 q 340 -149 314 -156 q 288 -163 262 -163 z"},"9":{"x_min":0,"x_max":624,"ha":624,"o":"m 536 480 q 522 459 522 454 q 522 379 529 169 q 535 15 535 -42 q 535 -59 522 -72 q 510 -86 498 -86 q 484 -86 478 -82 q 472 -77 472 -67 l 474 -37 q 480 13 480 61 q 480 89 477 293 l 476 381 q 424 301 381 248 q 338 194 283 158 q 228 121 165 121 q 104 121 72 158 q 40 196 40 257 q 40 346 96 440 q 151 534 238 595 q 324 656 412 656 q 457 656 488 628 q 518 599 527 556 q 539 554 548 546 q 558 538 558 525 q 558 515 536 480 z m 459 447 q 467 458 481 480 l 481 481 q 484 492 484 507 q 484 550 460 577 q 435 604 387 604 q 326 604 256 550 q 187 497 140 416 q 93 334 93 256 q 93 224 115 200 q 137 176 176 176 q 226 176 274 214 q 321 251 362 306 q 403 360 459 447 z"}," ":{"x_min":0,"x_max":287,"ha":287,"o":""},"I":{"x_min":0,"x_max":663,"ha":663,"o":"m 540 596 q 499 588 436 580 q 373 573 334 571 q 331 528 326 323 q 321 118 320 20 q 374 21 462 27 q 536 31 545 31 q 563 31 578 23 q 592 15 592 -2 q 592 -16 588 -22 q 583 -28 568 -28 q 562 -28 535 -25 q 515 -21 501 -21 q 454 -21 313 -27 q 308 -34 302 -38 q 295 -41 290 -41 q 284 -41 278 -38 q 272 -35 271 -29 l 226 -34 q 148 -44 110 -44 q 77 -44 60 -30 q 51 -22 51 -1 q 51 5 58 14 q 64 23 71 23 q 73 23 86 18 q 100 12 112 12 q 149 12 221 16 l 267 19 l 273 166 q 274 189 275 208 q 276 226 276 239 l 286 566 q 182 559 187 559 q 85 551 67 551 q 50 551 35 562 q 20 573 20 590 q 20 602 26 609 q 33 616 44 616 q 52 616 60 615 q 68 614 76 613 q 101 608 124 608 q 146 608 208 612 q 270 615 291 616 q 292 629 300 638 q 308 646 321 646 q 327 646 331 638 q 335 630 335 620 q 393 622 544 646 q 556 648 570 657 q 585 666 587 666 q 597 666 606 658 q 615 650 615 638 q 615 619 596 611 q 577 603 540 596 z"},"H":{"x_min":0,"x_max":684,"ha":684,"o":"m 604 249 q 586 243 560 242 q 535 240 527 240 q 526 209 523 171 q 520 133 518 108 l 515 77 l 513 45 l 507 -32 q 503 -83 474 -83 q 463 -83 452 -58 q 442 -32 442 -16 q 442 -12 450 0 q 458 12 460 30 q 464 58 469 123 q 474 188 476 232 q 437 229 392 223 q 372 221 302 214 q 232 207 192 205 q 188 139 183 44 q 178 -51 178 -72 q 178 -80 180 -93 q 183 -106 183 -113 q 183 -122 170 -131 q 156 -140 148 -140 q 138 -140 132 -127 q 125 -114 125 -97 q 125 -88 127 -68 q 129 -47 130 -32 q 134 -5 135 12 q 140 71 143 126 q 146 181 147 200 q 84 189 28 189 q 9 189 -4 198 q -18 208 -18 226 q -18 239 -12 246 q -5 252 15 252 l 68 251 q 120 249 152 249 q 157 334 157 385 q 157 501 155 593 l 155 630 q 155 645 166 654 q 178 664 193 664 q 204 664 208 647 q 212 630 212 609 q 212 587 207 519 q 201 403 201 396 l 196 253 q 280 255 481 279 q 485 308 495 431 q 499 496 502 526 l 508 604 q 521 751 521 788 q 521 801 531 809 q 541 817 554 817 q 572 817 572 782 q 572 760 562 665 q 551 541 550 527 q 544 450 538 380 q 533 310 531 286 q 549 289 563 295 q 581 301 591 301 q 601 301 614 289 q 627 277 627 272 q 627 256 604 249 z"},"4":{"x_min":0,"x_max":698,"ha":698,"o":"m 505 -69 q 484 -69 474 2 q 463 73 455 195 q 430 191 370 178 q 310 164 259 151 q 79 106 56 106 q 49 106 36 117 q 24 128 24 138 q 24 149 37 161 q 54 176 124 252 q 185 320 236 371 q 288 423 396 558 q 432 603 442 614 q 456 630 462 642 q 468 653 471 657 q 474 661 481 661 q 493 661 507 649 q 521 637 521 624 q 521 621 515 611 q 508 597 507 578 q 505 545 505 304 q 505 263 506 245 l 526 249 q 586 261 625 266 q 633 267 638 279 q 644 291 650 291 q 661 291 672 278 q 684 266 684 253 q 684 236 670 230 q 656 223 617 219 l 539 210 l 509 206 q 516 103 536 9 q 543 -30 543 -39 q 543 -50 532 -60 q 520 -69 505 -69 z m 269 346 q 177 247 106 167 l 174 182 q 229 192 249 197 q 309 211 389 226 l 452 239 q 449 278 449 300 q 449 366 450 447 q 452 528 453 549 q 435 529 382 470 q 330 412 269 346 z"},"~":{"x_min":0,"x_max":574,"ha":574,"o":"m 425 197 q 384 197 354 222 q 324 248 289 294 q 263 328 246 344 q 230 359 212 359 q 164 359 126 323 q 87 287 62 233 q 60 229 57 216 q 54 204 50 198 q 47 191 40 191 q 20 191 20 225 q 20 260 44 296 q 73 341 120 374 q 168 406 209 406 q 239 406 262 386 q 286 365 318 324 q 350 283 374 262 q 399 240 430 240 q 463 240 480 271 q 498 302 510 348 q 521 389 541 389 q 558 389 558 373 q 558 333 540 292 q 522 251 492 224 q 461 197 425 197 z"},"D":{"x_min":0,"x_max":654,"ha":654,"o":"m 438 158 q 377 104 312 56 q 248 8 205 -12 q 202 -23 196 -28 q 190 -34 178 -34 q 169 -34 165 -30 q 161 -27 161 -18 q 161 -12 166 32 q 170 76 170 135 q 170 235 167 316 q 165 410 165 448 q 165 507 177 545 q 186 569 209 569 q 217 569 224 566 q 230 563 230 557 q 229 552 220 522 q 210 492 210 465 q 210 390 213 301 q 215 187 215 143 q 215 68 214 53 q 250 67 312 111 q 373 155 415 191 q 502 269 542 331 q 582 393 582 460 q 582 541 480 571 q 379 601 215 601 q 165 601 81 589 q 65 588 31 579 q 16 574 10 574 q 2 574 -6 587 q -13 600 -13 613 q -13 618 -6 622 q 1 627 16 629 q 76 637 118 641 q 161 645 218 645 q 400 645 514 604 q 629 563 629 465 q 629 387 584 317 q 539 247 438 158 z"},"^":{"x_min":0,"x_max":484,"ha":484,"o":"m 428 351 q 408 351 401 392 q 394 431 379 474 q 364 516 337 583 q 325 609 323 618 q 317 636 310 659 q 303 682 300 691 l 209 551 q 201 540 177 503 q 153 466 131 423 q 109 380 109 357 q 109 339 100 327 q 92 315 73 315 q 63 315 58 322 q 53 330 53 348 q 53 392 113 490 q 173 588 240 679 q 281 750 304 750 q 316 750 332 725 q 349 700 362 656 q 366 637 380 603 q 393 569 396 562 q 422 500 436 459 q 450 418 450 391 q 450 367 444 359 q 438 351 428 351 z"},"0":{"x_min":0,"x_max":564,"ha":564,"o":"m 202 -83 q 130 -83 91 -29 q 52 25 52 111 q 52 214 78 320 q 103 425 146 510 q 138 510 131 516 q 124 522 124 531 q 124 544 140 555 q 155 566 176 571 q 178 573 183 580 q 188 586 197 586 q 207 586 216 582 q 225 579 227 575 q 255 580 284 580 q 352 580 406 543 q 460 506 491 440 q 522 375 522 294 q 522 206 476 118 q 431 30 356 -26 q 282 -83 202 -83 z m 288 519 q 265 519 227 513 l 206 510 q 160 428 134 317 q 109 206 109 112 q 109 49 134 8 q 158 -32 211 -32 q 272 -32 334 20 q 396 71 436 147 q 476 223 476 292 q 476 353 450 406 q 423 458 380 488 q 336 519 288 519 z"},"F":{"x_min":0,"x_max":591,"ha":591,"o":"m 519 317 q 491 314 386 292 q 282 269 233 256 q 233 234 234 164 q 234 93 236 44 q 237 25 240 2 q 244 -21 245 -31 q 251 -67 251 -74 q 251 -85 240 -106 q 230 -128 223 -128 q 216 -128 210 -121 q 204 -114 202 -104 q 192 -59 188 42 q 183 165 183 234 q 177 233 164 230 q 150 228 140 227 q 130 227 119 232 q 108 237 108 244 q 108 252 114 256 q 119 260 126 262 q 133 265 136 266 q 172 281 184 285 l 176 508 q 102 496 67 496 q 28 496 13 515 q -1 534 -1 550 q -1 559 12 559 q 14 559 36 552 q 57 545 73 545 q 105 545 175 555 q 175 557 176 570 q 177 584 185 595 q 190 604 194 607 q 198 610 203 610 q 222 610 222 568 q 236 571 286 580 q 335 589 399 597 q 463 605 510 605 q 548 605 548 590 q 548 578 540 559 q 531 540 520 540 q 516 540 512 544 q 508 549 506 550 q 497 554 480 554 q 449 554 356 541 q 264 528 223 519 l 230 302 q 284 316 396 340 q 508 364 527 364 q 535 364 538 362 q 541 359 541 351 q 541 320 519 317 z"},"`":{"x_min":0,"x_max":460,"ha":460,"o":"m 296 597 q 283 597 246 627 q 208 657 176 692 q 144 726 144 739 q 144 749 155 760 q 166 771 176 771 q 183 771 188 766 q 192 761 203 744 q 212 729 227 708 q 245 685 283 651 q 316 620 316 615 q 316 607 310 602 q 305 597 296 597 z"},"k":{"x_min":0,"x_max":484,"ha":484,"o":"m 467 386 q 459 386 449 394 q 439 403 435 403 q 408 403 349 366 q 290 329 228 279 q 166 229 133 194 l 134 176 q 210 141 303 101 q 396 61 432 54 q 446 52 460 51 q 474 50 480 50 q 489 50 495 49 q 501 48 501 45 q 501 33 482 21 q 464 9 427 9 q 394 9 338 34 q 281 58 204 98 l 141 129 q 154 2 154 -11 q 154 -22 143 -29 q 132 -36 119 -36 q 111 -36 106 -12 q 101 12 94 83 l 87 144 q 75 149 66 158 q 57 168 57 176 q 57 188 77 204 q 76 258 72 358 q 67 458 65 504 l 60 643 q 60 671 67 691 q 74 711 98 711 q 107 711 110 708 q 113 704 113 694 q 113 648 120 480 q 126 313 130 242 q 353 454 456 454 q 477 454 492 446 q 506 439 506 431 q 506 417 492 402 q 479 386 467 386 z"},"u":{"x_min":0,"x_max":499,"ha":499,"o":"m 434 -17 q 414 -17 398 25 q 381 67 377 112 q 373 155 371 286 q 370 307 370 328 q 370 350 369 365 q 340 296 290 208 q 240 120 190 57 q 139 -6 107 -6 q 74 -6 64 29 q 53 64 53 140 q 53 211 72 301 q 90 391 114 438 q 124 459 131 466 q 138 474 147 474 q 172 474 172 464 q 172 459 162 441 q 135 391 115 321 q 95 251 95 133 q 95 54 117 54 q 143 54 188 112 q 232 169 276 249 q 320 329 343 388 q 351 408 361 450 q 364 467 367 474 q 370 482 374 482 q 385 482 398 473 q 411 464 411 454 q 411 406 414 290 q 418 173 423 128 q 427 89 438 67 q 448 45 458 32 q 468 20 468 17 q 468 1 459 -8 q 450 -17 434 -17 z"},"]":{"x_min":0,"x_max":405,"ha":405,"o":"m 280 -107 q 228 -112 219 -116 q 194 -125 178 -136 q 161 -147 139 -164 q 127 -175 120 -180 q 112 -184 104 -184 q 92 -184 82 -176 q 72 -168 72 -159 q 72 -146 77 -138 q 82 -129 96 -123 q 112 -117 144 -101 q 181 -84 201 -76 q 221 -68 243 -65 q 239 -24 234 98 q 230 219 230 316 l 232 592 l 167 580 q 132 573 104 568 q 77 564 60 564 q 48 564 42 572 q 36 580 36 590 q 36 604 42 610 q 49 615 65 615 q 97 615 151 624 q 158 626 174 628 q 215 634 237 638 q 259 643 264 643 q 271 643 274 636 q 276 630 276 611 l 275 319 q 275 151 292 -50 l 294 -78 q 294 -91 292 -98 q 289 -106 280 -107 z"},"U":{"x_min":0,"x_max":648,"ha":648,"o":"m 594 -17 q 574 -17 558 25 q 541 67 537 112 q 533 150 529 289 q 527 347 526 361 q 457 193 368 66 q 280 -61 202 -61 q 163 -61 134 -14 q 106 33 91 112 q 76 192 76 287 q 76 364 85 462 q 94 559 107 602 q 111 614 118 622 q 126 629 136 629 q 161 629 161 610 q 161 607 142 538 q 123 469 123 280 q 123 155 146 74 q 170 -6 213 -6 q 255 -6 313 62 q 371 131 424 226 q 476 321 500 393 q 516 446 521 552 q 524 593 526 595 q 534 605 550 605 q 568 605 568 556 q 568 497 572 332 q 575 167 580 123 q 584 86 594 65 q 605 44 617 30 q 629 16 629 12 q 629 0 619 -8 q 609 -17 594 -17 z"},"o":{"x_min":0,"x_max":428,"ha":428,"o":"m 166 -7 q 99 -7 67 30 q 35 67 35 122 q 35 170 52 241 q 70 312 102 368 q 104 372 118 398 q 133 423 151 436 q 169 450 189 450 q 198 450 206 446 q 213 441 213 434 q 213 432 208 424 q 202 417 199 413 q 165 372 144 332 q 116 281 100 231 q 85 181 85 122 q 85 43 181 43 q 226 43 264 69 q 303 95 326 132 q 349 170 349 201 q 349 236 326 262 q 303 288 263 317 q 237 336 225 348 q 213 360 213 368 q 213 380 230 388 q 247 395 270 395 q 283 395 287 394 q 291 392 291 388 q 291 386 288 382 q 284 377 284 374 q 284 371 304 354 q 344 321 371 287 q 398 253 398 207 q 398 168 369 117 q 340 66 287 30 q 234 -7 166 -7 z"},"N":{"x_min":0,"x_max":690,"ha":690,"o":"m 545 -5 q 538 -5 452 102 q 365 210 309 286 q 301 297 258 359 q 195 451 180 470 l 178 393 l 177 318 q 177 247 176 164 q 174 81 172 32 q 171 20 162 10 q 152 0 142 0 q 131 0 126 6 q 122 13 122 32 q 122 44 126 106 q 135 221 135 299 q 135 361 137 416 q 139 472 139 485 l 140 514 l 140 517 q 140 528 144 534 q 147 541 158 541 l 163 541 q 174 541 206 502 q 239 462 289 394 q 300 380 310 366 q 320 353 329 341 q 386 268 389 264 q 531 83 544 58 q 542 66 537 95 q 532 124 528 171 q 523 218 523 268 q 523 357 506 503 q 501 551 501 562 q 501 600 544 600 q 554 600 559 580 q 564 559 566 493 q 568 427 568 282 q 568 236 572 192 q 575 148 578 114 q 583 67 583 43 l 584 7 q 584 -5 545 -5 z"},"+":{"x_min":0,"x_max":472,"ha":472,"o":"m 399 256 q 342 245 268 237 q 267 221 267 192 q 267 139 270 112 q 273 84 279 53 q 283 35 283 30 q 283 23 275 19 q 267 15 256 15 q 233 15 227 54 q 221 93 221 131 l 221 231 q 106 219 56 219 q 44 219 34 226 q 23 232 23 241 q 23 254 32 258 q 41 262 62 262 q 118 262 222 275 l 222 332 q 222 371 224 422 q 227 473 229 486 q 231 500 247 500 q 265 500 271 484 q 277 468 277 450 q 277 430 273 352 q 271 329 269 281 q 340 293 387 305 q 395 307 400 318 q 406 330 412 330 q 423 330 434 318 q 446 305 446 292 q 446 276 435 268 q 424 261 399 256 z"},"G":{"x_min":0,"x_max":725,"ha":725,"o":"m 683 -175 q 683 -182 676 -186 q 668 -190 659 -190 q 637 -190 622 -178 q 608 -165 608 -141 q 608 -15 610 65 l 612 154 q 615 247 615 293 q 515 70 419 -44 q 323 -157 204 -157 q 116 -157 75 -103 q 34 -49 34 65 q 34 218 103 364 q 172 511 280 603 q 389 695 500 695 q 535 695 548 673 q 560 651 560 627 q 560 602 556 588 q 551 573 545 573 q 540 573 538 582 q 535 591 532 614 q 529 636 522 646 q 515 657 497 657 q 405 657 308 567 q 210 477 146 340 q 81 202 81 71 q 81 -12 108 -58 q 136 -105 208 -105 q 286 -105 353 -44 q 420 17 472 106 q 525 196 597 344 q 546 334 454 304 l 415 291 l 378 279 q 341 266 318 260 q 295 253 280 253 q 270 253 264 262 q 259 272 259 283 q 259 297 300 312 q 341 326 423 344 q 455 351 515 368 q 525 371 576 384 q 626 397 646 397 q 648 397 658 397 q 667 397 671 390 q 675 382 675 366 q 675 357 663 350 l 662 273 q 659 195 659 103 l 659 -39 l 659 -94 q 661 -128 666 -142 q 671 -157 677 -164 q 683 -170 683 -175 z"},"q":{"x_min":0,"x_max":475,"ha":475,"o":"m 408 444 q 407 433 406 418 q 405 402 405 385 q 405 231 412 97 q 420 -37 426 -101 q 426 -107 427 -114 q 428 -121 429 -127 q 433 -155 433 -161 q 433 -171 418 -180 q 404 -189 396 -189 q 385 -189 382 -180 q 378 -172 378 -157 q 378 -102 381 -42 l 382 14 q 381 59 378 167 q 374 275 370 305 q 319 167 254 76 q 190 -14 115 -14 q 78 -14 56 16 q 34 46 34 91 q 34 167 85 250 q 136 333 203 390 q 270 447 310 447 q 327 447 336 438 q 344 430 344 416 q 344 398 338 390 q 331 383 317 383 q 308 383 297 388 q 286 392 283 392 q 263 392 212 344 q 160 297 120 230 q 79 164 79 105 q 79 82 92 64 q 104 47 133 47 q 199 47 260 155 q 322 263 366 397 q 367 406 367 428 l 366 502 q 366 520 381 520 q 391 520 401 514 q 411 507 411 496 q 411 473 408 444 z"},"d":{"x_min":0,"x_max":475,"ha":475,"o":"m 409 684 q 409 664 407 606 q 405 547 405 488 q 405 374 410 256 q 415 137 418 100 q 418 94 419 87 q 420 80 421 74 q 425 46 425 40 q 425 30 410 21 q 396 12 388 12 q 377 12 374 20 q 370 29 370 44 q 370 99 373 159 l 374 215 q 374 243 373 288 q 372 334 370 365 q 319 201 254 94 q 190 -14 115 -14 q 81 -14 58 18 q 34 50 34 110 q 34 189 88 282 q 141 375 210 442 q 278 509 311 509 q 343 509 343 488 q 343 474 334 456 q 324 437 312 422 q 301 407 299 407 q 297 407 294 408 q 292 410 292 412 q 292 417 297 429 q 302 441 302 445 q 302 450 301 452 q 300 454 295 454 q 274 454 220 396 q 165 339 122 260 q 79 181 79 113 q 79 89 89 68 q 99 47 122 47 q 195 47 258 170 q 320 294 366 451 l 364 535 q 361 646 361 653 q 361 713 366 739 q 368 749 370 753 q 373 757 381 757 q 391 757 401 750 q 411 744 411 733 z"},"1":{"x_min":0,"x_max":440,"ha":440,"o":"m 321 -31 q 324 -43 328 -60 q 331 -76 331 -80 q 331 -91 318 -100 q 306 -110 291 -110 q 282 -110 273 -92 q 264 -75 260 -48 q 242 57 228 277 l 214 490 q 136 412 53 358 q 31 344 22 344 q 12 344 6 350 q 0 357 0 363 q 0 376 23 391 q 74 424 114 461 q 155 498 196 540 l 210 554 l 210 555 l 210 570 l 210 580 q 210 587 213 589 q 215 591 217 591 q 223 594 231 594 q 251 594 263 588 q 275 582 275 570 q 275 558 263 542 q 268 518 269 494 q 271 435 284 266 q 297 98 304 45 q 309 19 321 -31 z"},"5":{"x_min":0,"x_max":553,"ha":553,"o":"m 497 624 q 497 607 479 604 q 418 593 370 582 q 321 572 283 561 q 258 554 238 548 q 219 541 205 535 q 191 529 176 522 q 162 514 146 505 q 146 443 113 286 l 163 304 q 188 313 217 321 q 246 329 276 335 q 306 341 336 345 q 366 349 393 349 q 448 349 476 322 q 504 294 504 243 q 504 171 462 108 q 420 44 339 -8 q 293 -37 272 -50 q 250 -64 239 -69 q 207 -85 193 -85 q 179 -85 170 -73 q 161 -61 161 -50 q 161 -36 179 -31 l 200 -25 q 217 -20 232 -14 q 246 -8 257 -3 q 281 7 317 30 q 386 75 418 124 q 449 173 449 230 q 449 270 432 286 q 414 302 379 302 q 337 302 291 290 q 245 279 183 260 q 160 252 147 248 q 134 243 131 242 q 124 240 115 234 q 106 228 99 224 q 90 218 83 218 q 76 218 73 219 q 55 222 55 243 q 55 246 64 293 q 77 362 85 410 q 93 459 93 492 q 86 500 86 513 q 86 531 121 550 q 156 569 234 595 q 294 615 359 628 q 424 640 478 640 q 497 640 497 624 z"}}}
